<svg width="394" height="394" viewBox="0 0 394 394" fill="none" xmlns="http://www.w3.org/2000/svg">
<rect width="394" height="394" rx="50" fill="white"/>
<g filter="url(#filter0_d_9_94)">
<path d="M186.677 114.003C187.395 114.006 188.114 114.005 188.832 114.004C189.707 114.002 190.581 114.006 191.455 114.009C191.77 114.008 192.085 114.008 192.41 114.008C194.476 114.025 196.441 114.257 198.474 114.616C199.156 114.713 199.84 114.796 200.524 114.88C201.015 114.94 201.506 115 201.997 115.063C202.5 115.126 203.004 115.186 203.507 115.245C205.853 115.536 208.1 115.989 210.387 116.596C210.645 116.664 210.645 116.664 210.908 116.733C217.635 118.518 224.306 121.106 230.288 124.729C231.238 125.306 231.238 125.306 232.327 125.439C232.729 124.886 232.729 124.886 233.108 124.169C235.501 120.229 239.143 117.692 243.525 116.464C248.449 115.426 253.16 116.603 257.326 119.368C261.092 122.235 263.881 126.486 264.618 131.247C264.793 134.042 264.76 136.765 263.836 139.43C263.704 139.823 263.704 139.823 263.568 140.224C261.783 145.005 258.218 148.31 253.746 150.484C252.666 150.963 251.729 151.23 250.556 151.309C250.523 151.473 250.491 151.637 250.458 151.805C249.258 157.03 245.755 161.603 241.295 164.426C236.702 167.013 231.16 168.014 225.979 166.884C222.939 165.925 220.373 164.362 217.947 162.302C211.19 156.626 201.636 152.92 192.846 152.83C192.638 152.828 192.43 152.825 192.215 152.822C185.896 152.732 185.896 152.732 179.724 153.949C179.509 154.011 179.295 154.074 179.074 154.138C172.892 155.953 166.897 158.892 162.016 163.188C161.807 163.372 161.597 163.556 161.381 163.745C153.024 171.222 147.109 181.636 146.168 193.071C146.094 194.557 146.083 196.043 146.083 197.531C146.083 198.102 146.078 198.673 146.073 199.244C146.072 199.612 146.072 199.98 146.071 200.348C146.07 200.677 146.069 201.005 146.068 201.344C146.173 202.855 146.524 203.821 147.596 204.864C148.584 205.941 149.245 207.058 149.891 208.362C149.98 208.539 150.069 208.715 150.161 208.897C150.706 210.037 150.964 211.027 151.079 212.289C151.338 212.145 151.596 212.002 151.862 211.855C156.919 209.123 162.022 208.629 167.511 210.283C171.071 211.421 173.948 213.343 176.599 215.984C176.762 216.146 176.926 216.308 177.094 216.475C180.892 220.552 182.478 226.219 182.376 231.717C182.228 234.499 181.491 236.902 180.505 239.479C181.52 239.652 182.534 239.821 183.549 239.99C183.831 240.038 184.113 240.086 184.404 240.136C190.217 241.098 196.296 241.21 202.119 240.271C202.501 240.215 202.882 240.16 203.264 240.106C212.842 238.674 221.599 234.676 229.037 228.433C233.176 224.997 237.169 222.957 242.581 223.013C243.022 223.008 243.022 223.008 243.472 223.004C249.337 223.024 254.187 225.399 258.368 229.447C258.528 229.59 258.688 229.733 258.853 229.88C261.094 231.952 262.801 235.028 263.836 237.895C263.939 238.172 264.041 238.449 264.146 238.735C264.895 241.185 264.979 243.57 264.992 246.128C264.995 246.46 264.997 246.792 265 247.134C264.932 254.625 261.425 260.886 256.349 266.083C253.624 268.689 250.473 270.709 247.17 272.476C247.014 272.56 246.857 272.644 246.695 272.731C235.732 278.492 224.082 280.041 211.938 279.998C210.618 279.994 209.298 279.997 207.978 279.999C205.403 280.002 202.828 279.999 200.254 279.994C197.248 279.988 194.242 279.988 191.237 279.989C185.871 279.989 180.506 279.984 175.14 279.976C169.946 279.969 164.752 279.965 159.558 279.966C159.078 279.966 159.078 279.966 158.587 279.966C158.268 279.966 157.948 279.966 157.618 279.966C151.685 279.966 145.751 279.963 139.817 279.958C137.727 279.957 135.636 279.956 133.546 279.956C130.997 279.955 128.448 279.953 125.899 279.948C124.601 279.946 123.303 279.944 122.004 279.945C109.801 279.95 109.801 279.95 104.954 278.746C104.716 278.688 104.478 278.631 104.233 278.571C97.2421 276.829 90.5173 273.849 85.2352 268.789C84.7227 268.298 84.1937 267.848 83.6493 267.395C81.1617 265.184 79.2444 262.456 77.6436 259.541C77.5575 259.388 77.4713 259.235 77.3825 259.077C72.9348 251.089 71.8988 241.125 74.1547 232.263C76.5428 223.606 82.1633 215.964 89.8392 211.42C90.7914 210.878 91.7615 210.389 92.7474 209.913C93.1326 209.727 93.1326 209.727 93.5256 209.536C95.3958 208.725 97.3227 208.283 99.3065 207.851C99.5695 207.793 99.8324 207.735 100.103 207.675C101.752 207.336 103.305 207.199 104.987 207.273C104.954 207.092 104.921 206.911 104.888 206.725C104.794 206.205 104.701 205.686 104.608 205.166C104.524 204.694 104.438 204.223 104.35 203.752C102.971 196.22 103.037 187.592 104.466 180.083C104.522 179.784 104.578 179.486 104.635 179.178C107.187 165.822 112.867 152.733 122.114 142.705C122.604 142.169 123.077 141.624 123.548 141.071C124.504 139.96 125.507 138.904 126.536 137.863C126.718 137.678 126.9 137.493 127.088 137.303C128.282 136.108 129.494 134.99 130.819 133.944C131.557 133.352 132.271 132.737 132.987 132.117C134.589 130.751 136.279 129.544 138.026 128.376C138.177 128.274 138.328 128.173 138.484 128.068C141.374 126.129 144.34 124.386 147.433 122.799C147.64 122.692 147.846 122.585 148.059 122.475C152.665 120.108 157.51 118.201 162.537 116.992C163.024 116.861 163.51 116.73 163.997 116.599C171.452 114.626 178.994 113.951 186.677 114.003Z" fill="#151515"/>
</g>
<path d="M294.295 116.522C295.621 113.159 300.379 113.159 301.705 116.522L305.815 126.941C306.219 127.968 307.032 128.78 308.059 129.185L318.478 133.295C321.841 134.621 321.841 139.379 318.478 140.705L308.059 144.815C307.032 145.219 306.219 146.032 305.815 147.059L301.705 157.478C300.379 160.841 295.621 160.841 294.295 157.478L290.185 147.059C289.78 146.032 288.968 145.219 287.941 144.815L277.522 140.705C274.159 139.379 274.159 134.621 277.522 133.295L287.941 129.185C288.968 128.78 289.78 127.968 290.185 126.941L294.295 116.522Z" fill="#151515"/>
<defs>
<filter id="filter0_d_9_94" x="69" y="114" width="200" height="174" filterUnits="userSpaceOnUse" color-interpolation-filters="sRGB">
<feFlood flood-opacity="0" result="BackgroundImageFix"/>
<feColorMatrix in="SourceAlpha" type="matrix" values="0 0 0 0 0 0 0 0 0 0 0 0 0 0 0 0 0 0 127 0" result="hardAlpha"/>
<feOffset dy="4"/>
<feGaussianBlur stdDeviation="2"/>
<feComposite in2="hardAlpha" operator="out"/>
<feColorMatrix type="matrix" values="0 0 0 0 0 0 0 0 0 0 0 0 0 0 0 0 0 0 0.25 0"/>
<feBlend mode="normal" in2="BackgroundImageFix" result="effect1_dropShadow_9_94"/>
<feBlend mode="normal" in="SourceGraphic" in2="effect1_dropShadow_9_94" result="shape"/>
</filter>
</defs>
</svg>
