<svg width="500" height="500" viewBox="0 0 500 500" fill="none" xmlns="http://www.w3.org/2000/svg">
<rect width="500" height="500" rx="50" fill="white"/>
<path d="M276.884 129.004C277.976 129.009 279.069 129.007 280.162 129.005C281.491 129.004 282.821 129.008 284.15 129.012C284.63 129.012 285.109 129.012 285.603 129.011C288.744 129.036 291.733 129.375 294.825 129.898C295.863 130.039 296.902 130.161 297.943 130.283C298.69 130.37 299.437 130.458 300.183 130.55C300.948 130.642 301.714 130.73 302.48 130.816C306.047 131.239 309.465 131.9 312.943 132.784C313.336 132.883 313.336 132.883 313.736 132.984C323.966 135.587 334.112 139.359 343.208 144.641C344.654 145.483 344.654 145.483 346.31 145.676C346.922 144.871 346.922 144.871 347.498 143.824C351.137 138.081 356.676 134.382 363.339 132.592C370.829 131.079 377.994 132.795 384.33 136.825C390.057 141.005 394.298 147.202 395.419 154.143C395.685 158.219 395.635 162.188 394.23 166.073C394.028 166.646 394.028 166.646 393.822 167.23C391.107 174.199 385.686 179.019 378.884 182.188C377.243 182.886 375.817 183.275 374.032 183.39C373.983 183.629 373.934 183.868 373.884 184.114C372.058 191.73 366.732 198.397 359.948 202.512C352.964 206.284 344.536 207.744 336.656 206.096C332.033 204.697 328.13 202.419 324.441 199.417C314.164 191.141 299.634 185.739 286.266 185.608C285.949 185.604 285.632 185.6 285.306 185.596C275.697 185.465 275.697 185.465 266.31 187.239C265.983 187.33 265.657 187.421 265.32 187.514C255.919 190.16 246.802 194.445 239.379 200.708C239.06 200.976 238.741 201.244 238.412 201.52C225.704 212.42 216.708 227.602 215.277 244.272C215.164 246.439 215.147 248.605 215.147 250.775C215.146 251.607 215.139 252.439 215.132 253.272C215.13 253.808 215.13 254.344 215.129 254.88C215.128 255.36 215.126 255.839 215.124 256.333C215.284 258.535 215.818 259.943 217.448 261.465C218.951 263.034 219.956 264.663 220.938 266.564C221.074 266.821 221.209 267.079 221.349 267.344C222.178 269.006 222.571 270.449 222.745 272.288C223.138 272.079 223.532 271.871 223.937 271.655C231.627 267.673 239.388 266.953 247.736 269.364C253.15 271.023 257.524 273.825 261.557 277.676C261.805 277.912 262.053 278.148 262.309 278.392C268.086 284.335 270.498 292.596 270.343 300.612C270.118 304.667 268.996 308.17 267.498 311.927C269.04 312.179 270.583 312.426 272.127 312.672C272.556 312.743 272.985 312.813 273.427 312.885C282.268 314.287 291.513 314.451 300.369 313.081C300.949 313.001 301.529 312.921 302.11 312.841C316.677 310.754 329.994 304.926 341.307 295.824C347.601 290.815 353.674 287.841 361.904 287.922C362.575 287.916 362.575 287.916 363.259 287.909C372.179 287.939 379.555 291.401 385.914 297.303C386.157 297.511 386.401 297.719 386.652 297.933C390.059 300.954 392.656 305.438 394.23 309.618C394.386 310.022 394.541 310.426 394.701 310.843C395.84 314.415 395.968 317.891 395.988 321.62C395.992 322.104 395.996 322.589 396 323.088C395.896 334.008 390.563 343.135 382.843 350.711C378.698 354.51 373.907 357.455 368.884 360.032C368.646 360.154 368.407 360.276 368.162 360.402C351.488 368.802 333.771 371.06 315.302 370.997C313.294 370.992 311.287 370.996 309.279 370.999C305.363 371.002 301.447 370.998 297.532 370.991C292.96 370.983 288.389 370.983 283.818 370.983C275.658 370.984 267.498 370.977 259.338 370.966C251.439 370.955 243.54 370.949 235.64 370.95C234.91 370.95 234.91 370.95 234.164 370.95C233.678 370.95 233.192 370.95 232.691 370.95C223.666 370.951 214.642 370.946 205.617 370.939C202.438 370.937 199.259 370.936 196.08 370.936C192.204 370.935 188.327 370.932 184.45 370.925C182.476 370.921 180.502 370.919 178.528 370.92C159.969 370.927 159.969 370.927 152.597 369.172C152.235 369.088 151.873 369.004 151.501 368.917C140.868 366.377 130.641 362.033 122.608 354.656C121.828 353.941 121.024 353.284 120.196 352.624C116.413 349.4 113.497 345.424 111.062 341.175C110.931 340.951 110.8 340.728 110.665 340.498C103.901 328.852 102.325 314.327 105.756 301.408C109.388 288.788 117.936 277.646 129.61 271.023C131.058 270.232 132.533 269.519 134.033 268.825C134.618 268.553 134.618 268.553 135.216 268.276C138.06 267.094 140.991 266.448 144.008 265.818C144.408 265.734 144.808 265.649 145.22 265.562C147.728 265.068 150.089 264.869 152.646 264.976C152.597 264.713 152.547 264.449 152.496 264.177C152.353 263.42 152.212 262.662 152.071 261.905C151.943 261.217 151.812 260.53 151.678 259.843C149.581 248.863 149.682 236.285 151.854 225.338C151.939 224.902 152.024 224.467 152.112 224.018C155.993 204.548 164.631 185.467 178.694 170.847C179.439 170.066 180.158 169.271 180.875 168.464C182.329 166.845 183.854 165.306 185.419 163.788C185.696 163.519 185.973 163.249 186.259 162.972C188.074 161.229 189.918 159.6 191.933 158.076C193.055 157.212 194.141 156.315 195.23 155.411C197.666 153.421 200.236 151.66 202.894 149.958C203.124 149.809 203.353 149.661 203.59 149.509C207.985 146.683 212.497 144.141 217.201 141.828C217.515 141.672 217.828 141.516 218.152 141.355C225.157 137.905 232.526 135.125 240.171 133.361C240.911 133.17 241.651 132.979 242.391 132.788C253.729 129.913 265.199 128.928 276.884 129.004Z" fill="#2F2F2F"/>
</svg>
